<?xml version="1.0" encoding="UTF-8" standalone="no"?>
<!-- Created by MetaPost 2.01 on 2022.08.11:1715 -->

<svg
   xmlns:dc="http://purl.org/dc/elements/1.1/"
   xmlns:cc="http://creativecommons.org/ns#"
   xmlns:rdf="http://www.w3.org/1999/02/22-rdf-syntax-ns#"
   xmlns:svg="http://www.w3.org/2000/svg"
   xmlns="http://www.w3.org/2000/svg"
   xmlns:xlink="http://www.w3.org/1999/xlink"
   xmlns:sodipodi="http://sodipodi.sourceforge.net/DTD/sodipodi-0.dtd"
   xmlns:inkscape="http://www.inkscape.org/namespaces/inkscape"
   version="1.1"
   width="402.712051"
   height="74.576065"
   viewBox="0 0 402.712051 74.576065"
   id="svg4020"
   sodipodi:docname="em.svg"
   inkscape:version="0.92.1 r15371">
  <metadata
     id="metadata4024">
    <rdf:RDF>
      <cc:Work
         rdf:about="">
        <dc:format>image/svg+xml</dc:format>
        <dc:type
           rdf:resource="http://purl.org/dc/dcmitype/StillImage" />
      </cc:Work>
    </rdf:RDF>
  </metadata>
  <sodipodi:namedview
     pagecolor="#ffffff"
     bordercolor="#666666"
     borderopacity="1"
     objecttolerance="10"
     gridtolerance="10"
     guidetolerance="10"
     inkscape:pageopacity="0"
     inkscape:pageshadow="2"
     inkscape:window-width="1920"
     inkscape:window-height="1011"
     id="namedview4022"
     showgrid="false"
     inkscape:zoom="4.2834578"
     inkscape:cx="149.64546"
     inkscape:cy="37.288033"
     inkscape:window-x="0"
     inkscape:window-y="0"
     inkscape:window-maximized="1"
     inkscape:current-layer="svg4020" />
  <!-- Original BoundingBox: -11.036407 -17.833267 391.675644 56.742798 -->
  <defs
     id="defs3902">
    <g
       transform="scale(0.009963,0.009963)"
       id="GLYPHcmss10_13">
      <path
         style="fill-rule: evenodd;"
         d="M176.000000 -386.000000L294.000000 -386.000000L294.000000 -444.000000L173.000000 -444.000000L173.000000 -565.000000C173.000000 -629.000000,209.000000 -644.000000,234.000000 -644.000000C254.000000 -644.000000,276.000000 -638.000000,294.000000 -627.000000L294.000000 -694.000000C288.000000 -696.000000,263.000000 -705.000000,234.000000 -705.000000C160.000000 -705.000000,101.000000 -635.000000,101.000000 -535.000000L101.000000 -444.000000L27.000000 -444.000000L27.000000 -386.000000L101.000000 -386.000000L101.000000 -0.000000L176.000000 -0.000000M453.000000 -694.000000L378.000000 -694.000000L378.000000 -0.000000L453.000000 -0.000000"
         id="path3872" />
    </g>
    <g
       transform="scale(0.009963,0.009963)"
       id="GLYPHcmss10_97">
      <path
         style="fill-rule: evenodd;"
         d="M399.000000 -289.000000C399.000000 -391.000000,326.000000 -461.000000,234.000000 -461.000000C169.000000 -461.000000,124.000000 -445.000000,77.000000 -418.000000L83.000000 -352.000000C135.000000 -389.000000,185.000000 -402.000000,234.000000 -402.000000C281.000000 -402.000000,321.000000 -362.000000,321.000000 -288.000000L321.000000 -245.000000C171.000000 -243.000000,44.000000 -201.000000,44.000000 -113.000000C44.000000 -70.000000,71.000000 11.000000,158.000000 11.000000C172.000000 11.000000,266.000000 9.000000,324.000000 -36.000000L324.000000 -0.000000L399.000000 -0.000000M321.000000 -132.000000C321.000000 -113.000000,321.000000 -88.000000,287.000000 -69.000000C258.000000 -51.000000,220.000000 -50.000000,209.000000 -50.000000C161.000000 -50.000000,116.000000 -73.000000,116.000000 -115.000000C116.000000 -185.000000,278.000000 -192.000000,321.000000 -194.000000"
         id="path3875" />
    </g>
    <g
       transform="scale(0.009963,0.009963)"
       id="GLYPHcmss10_98">
      <path
         style="fill-rule: evenodd;"
         d="M157.000000 -694.000000L82.000000 -694.000000L82.000000 -0.000000L160.000000 -0.000000L160.000000 -46.000000C184.000000 -24.000000,227.000000 11.000000,294.000000 11.000000C394.000000 11.000000,480.000000 -89.000000,480.000000 -223.000000C480.000000 -347.000000,412.000000 -455.000000,318.000000 -455.000000C279.000000 -455.000000,217.000000 -445.000000,157.000000 -396.000000M160.000000 -335.000000C176.000000 -359.000000,212.000000 -394.000000,267.000000 -394.000000C326.000000 -394.000000,402.000000 -351.000000,402.000000 -223.000000C402.000000 -93.000000,318.000000 -50.000000,257.000000 -50.000000C218.000000 -50.000000,185.000000 -68.000000,160.000000 -114.000000"
         id="path3878" />
    </g>
    <g
       transform="scale(0.009963,0.009963)"
       id="GLYPHcmss10_101">
      <path
         style="fill-rule: evenodd;"
         d="M414.000000 -219.000000C414.000000 -253.000000,413.000000 -328.000000,374.000000 -388.000000C333.000000 -450.000000,272.000000 -461.000000,236.000000 -461.000000C125.000000 -461.000000,35.000000 -355.000000,35.000000 -226.000000C35.000000 -94.000000,131.000000 11.000000,251.000000 11.000000C314.000000 11.000000,371.000000 -13.000000,410.000000 -41.000000L404.000000 -106.000000C341.000000 -54.000000,275.000000 -50.000000,252.000000 -50.000000C172.000000 -50.000000,108.000000 -121.000000,105.000000 -219.000000M110.000000 -274.000000C126.000000 -350.000000,179.000000 -400.000000,236.000000 -400.000000C288.000000 -400.000000,344.000000 -366.000000,357.000000 -274.000000"
         id="path3881" />
    </g>
    <g
       transform="scale(0.009963,0.009963)"
       id="GLYPHcmss10_102">
      <path
         style="fill-rule: evenodd;"
         d="M176.000000 -386.000000L286.000000 -386.000000L286.000000 -444.000000L173.000000 -444.000000L173.000000 -563.000000C173.000000 -637.000000,240.000000 -644.000000,266.000000 -644.000000C286.000000 -644.000000,313.000000 -642.000000,347.000000 -627.000000L347.000000 -694.000000C335.000000 -697.000000,304.000000 -705.000000,267.000000 -705.000000C173.000000 -705.000000,101.000000 -634.000000,101.000000 -534.000000L101.000000 -444.000000L27.000000 -444.000000L27.000000 -386.000000L101.000000 -386.000000L101.000000 -0.000000L176.000000 -0.000000"
         id="path3884" />
    </g>
    <g
       transform="scale(0.009963,0.009963)"
       id="GLYPHcmss10_103">
      <path
         style="fill-rule: evenodd;"
         d="M352.000000 -391.000000C374.000000 -391.000000,402.000000 -395.000000,426.000000 -395.000000C444.000000 -395.000000,483.000000 -392.000000,485.000000 -392.000000L474.000000 -455.000000C404.000000 -455.000000,346.000000 -436.000000,316.000000 -423.000000C295.000000 -440.000000,261.000000 -455.000000,221.000000 -455.000000C135.000000 -455.000000,62.000000 -383.000000,62.000000 -292.000000C62.000000 -255.000000,75.000000 -219.000000,95.000000 -193.000000C66.000000 -152.000000,66.000000 -113.000000,66.000000 -108.000000C66.000000 -82.000000,75.000000 -53.000000,92.000000 -32.000000C40.000000 -1.000000,28.000000 45.000000,28.000000 71.000000C28.000000 146.000000,127.000000 206.000000,249.000000 206.000000C372.000000 206.000000,471.000000 147.000000,471.000000 70.000000C471.000000 -69.000000,304.000000 -69.000000,265.000000 -69.000000L177.000000 -69.000000C164.000000 -69.000000,119.000000 -69.000000,119.000000 -122.000000C119.000000 -133.000000,123.000000 -149.000000,130.000000 -158.000000C151.000000 -143.000000,184.000000 -129.000000,221.000000 -129.000000C311.000000 -129.000000,381.000000 -203.000000,381.000000 -292.000000C381.000000 -340.000000,359.000000 -377.000000,348.000000 -392.000000M221.000000 -186.000000C184.000000 -186.000000,132.000000 -209.000000,132.000000 -292.000000C132.000000 -375.000000,184.000000 -398.000000,221.000000 -398.000000C264.000000 -398.000000,311.000000 -370.000000,311.000000 -292.000000C311.000000 -214.000000,264.000000 -186.000000,221.000000 -186.000000M266.000000 3.000000C288.000000 3.000000,401.000000 3.000000,401.000000 72.000000C401.000000 116.000000,332.000000 149.000000,250.000000 149.000000C169.000000 149.000000,98.000000 118.000000,98.000000 71.000000C98.000000 68.000000,98.000000 3.000000,176.000000 3.000000"
         id="path3887" />
    </g>
    <g
       transform="scale(0.009963,0.009963)"
       id="GLYPHcmss10_110">
      <path
         style="fill-rule: evenodd;"
         d="M435.000000 -298.000000C435.000000 -364.000000,420.000000 -455.000000,298.000000 -455.000000C208.000000 -455.000000,159.000000 -387.000000,153.000000 -379.000000L153.000000 -450.000000L81.000000 -450.000000L81.000000 -0.000000L159.000000 -0.000000L159.000000 -245.000000C159.000000 -311.000000,184.000000 -394.000000,260.000000 -394.000000C356.000000 -394.000000,357.000000 -323.000000,357.000000 -291.000000L357.000000 -0.000000L435.000000 -0.000000"
         id="path3890" />
    </g>
    <g
       transform="scale(0.009963,0.009963)"
       id="GLYPHcmss10_112">
      <path
         style="fill-rule: evenodd;"
         d="M160.000000 -46.000000C191.000000 -17.000000,235.000000 11.000000,295.000000 11.000000C392.000000 11.000000,480.000000 -87.000000,480.000000 -223.000000C480.000000 -343.000000,417.000000 -455.000000,321.000000 -455.000000C261.000000 -455.000000,203.000000 -434.000000,157.000000 -395.000000L157.000000 -444.000000L82.000000 -444.000000L82.000000 194.000000L160.000000 194.000000M160.000000 -333.000000C184.000000 -368.000000,223.000000 -391.000000,266.000000 -391.000000C342.000000 -391.000000,402.000000 -315.000000,402.000000 -223.000000C402.000000 -120.000000,331.000000 -50.000000,256.000000 -50.000000C217.000000 -50.000000,190.000000 -70.000000,170.000000 -97.000000C160.000000 -112.000000,160.000000 -114.000000,160.000000 -132.000000"
         id="path3893" />
    </g>
    <g
       transform="scale(0.009963,0.009963)"
       id="GLYPHcmss10_117">
      <path
         style="fill-rule: evenodd;"
         d="M435.000000 -444.000000L357.000000 -444.000000L357.000000 -154.000000C357.000000 -79.000000,301.000000 -44.000000,237.000000 -44.000000C166.000000 -44.000000,159.000000 -70.000000,159.000000 -113.000000L159.000000 -444.000000L81.000000 -444.000000L81.000000 -109.000000C81.000000 -37.000000,104.000000 11.000000,187.000000 11.000000C240.000000 11.000000,311.000000 -5.000000,360.000000 -48.000000L360.000000 -0.000000L435.000000 -0.000000"
         id="path3896" />
    </g>
    <g
       transform="scale(0.009963,0.009963)"
       id="GLYPHcmss10_120">
      <path
         style="fill-rule: evenodd;"
         d="M260.000000 -229.000000L443.000000 -444.000000L361.000000 -444.000000L227.000000 -279.000000L89.000000 -444.000000L6.000000 -444.000000L194.000000 -229.000000L0.000000 -0.000000L82.000000 -0.000000L227.000000 -188.000000L377.000000 -0.000000L460.000000 -0.000000"
         id="path3899" />
    </g>
  </defs>
  <g
     transform="translate(-0.036407 71.896072)"
     style="fill: rgb(0.000000%,0.000000%,0.000000%);"
     id="g3906">
    <use
       xlink:href="#GLYPHcmss10_98"
       id="use3904" />
  </g>
  <path
     d="M5.708694 71.696869L8.697495 71.696869"
     style="stroke:rgb(0.000000%,0.000000%,0.000000%); stroke-width: 0.398499;stroke-linejoin: round;stroke-miterlimit: 10.000000;fill: none;"
     id="path3908" />
  <g
     transform="translate(8.697495 71.896072)"
     style="fill: rgb(0.000000%,0.000000%,0.000000%);"
     id="g3916">
    <use
       xlink:href="#GLYPHcmss10_98"
       id="use3910" />
    <use
       xlink:href="#GLYPHcmss10_117"
       x="5.166766"
       id="use3912" />
    <use
       xlink:href="#GLYPHcmss10_102"
       x="10.333532"
       id="use3914" />
  </g>
  <g
     transform="translate(216.645950 71.896072)"
     style="fill: rgb(0.000000%,0.000000%,0.000000%);"
     id="g3934">
    <use
       xlink:href="#GLYPHcmss10_98"
       id="use3932" />
  </g>
  <path
     d="M222.391052 71.696869L225.379852 71.696869"
     style="stroke:rgb(0.000000%,0.000000%,0.000000%); stroke-width: 0.398499;stroke-linejoin: round;stroke-miterlimit: 10.000000;fill: none;"
     id="path3936" />
  <g
     transform="translate(225.379852 71.896072)"
     style="fill: rgb(0.000000%,0.000000%,0.000000%);"
     id="g3946">
    <use
       xlink:href="#GLYPHcmss10_101"
       id="use3938" />
    <use
       xlink:href="#GLYPHcmss10_103"
       x="4.444529"
       id="use3940" />
    <use
       xlink:href="#GLYPHcmss10_97"
       x="9.444624"
       id="use3942" />
    <use
       xlink:href="#GLYPHcmss10_112"
       x="14.250279"
       id="use3944" />
  </g>
  <g
     transform="translate(376.174942 71.896072)"
     style="fill: rgb(0.000000%,0.000000%,0.000000%);"
     id="g3950">
    <use
       xlink:href="#GLYPHcmss10_98"
       id="use3948" />
  </g>
  <path
     d="M381.920044 71.696869L384.908844 71.696869"
     style="stroke:rgb(0.000000%,0.000000%,0.000000%); stroke-width: 0.398499;stroke-linejoin: round;stroke-miterlimit: 10.000000;fill: none;"
     id="path3952" />
  <g
     transform="translate(384.908844 71.896072)"
     style="fill: rgb(0.000000%,0.000000%,0.000000%);"
     id="g3962">
    <use
       xlink:href="#GLYPHcmss10_101"
       id="use3954" />
    <use
       xlink:href="#GLYPHcmss10_98"
       x="4.444529"
       id="use3956" />
    <use
       xlink:href="#GLYPHcmss10_117"
       x="9.611295"
       id="use3958" />
    <use
       xlink:href="#GLYPHcmss10_102"
       x="14.778061"
       id="use3960" />
  </g>
  <path
     d="M11.000000 56.000000C11.000000 46.037384,63.209717 54.798752,67.692902 47.033646"
     style="stroke:rgb(0.000000%,0.000000%,0.000000%); stroke-width: 0.398499;stroke-linecap: round;stroke-linejoin: round;stroke-miterlimit: 10.000000;fill: none;"
     id="path3964" />
  <path
     d="M67.692902 47.033646C72.176086 54.798752,124.385803 46.037384,124.385803 56.000000"
     style="stroke:rgb(0.000000%,0.000000%,0.000000%); stroke-width: 0.398499;stroke-linecap: round;stroke-linejoin: round;stroke-miterlimit: 10.000000;fill: none;"
     id="path3966" />
  <g
     transform="translate(57.937805 42.096451)"
     style="fill: rgb(0.000000%,0.000000%,0.000000%);"
     id="g3976">
    <use
       xlink:href="#GLYPHcmss10_120"
       id="use3968" />
    <use
       xlink:href="#GLYPHcmss10_103"
       x="4.611200"
       id="use3970" />
    <use
       xlink:href="#GLYPHcmss10_97"
       x="9.611295"
       id="use3972" />
    <use
       xlink:href="#GLYPHcmss10_112"
       x="14.416950"
       id="use3974" />
  </g>
  <path
     d="M11.000000 56.000000C11.000000 22.127106,113.868668 41.180008,120.842499 29.100937"
     style="stroke:rgb(0.000000%,0.000000%,0.000000%); stroke-width: 0.398499;stroke-linecap: round;stroke-linejoin: round;stroke-miterlimit: 10.000000;fill: none;"
     id="path3978" />
  <path
     d="M120.842499 29.100937C127.816376 41.180008,230.685043 22.127106,230.684998 56.000000"
     style="stroke:rgb(0.000000%,0.000000%,0.000000%); stroke-width: 0.398499;stroke-linecap: round;stroke-linejoin: round;stroke-miterlimit: 10.000000;fill: none;"
     id="path3980" />
  <g
     transform="translate(108.873444 24.163742)"
     style="fill: rgb(0.000000%,0.000000%,0.000000%);"
     id="g3992">
    <use
       xlink:href="#GLYPHcmss10_120"
       id="use3982" />
    <use
       xlink:href="#GLYPHcmss10_101"
       x="4.611200"
       id="use3984" />
    <use
       xlink:href="#GLYPHcmss10_103"
       x="9.055729"
       id="use3986" />
    <use
       xlink:href="#GLYPHcmss10_97"
       x="14.055824"
       id="use3988" />
    <use
       xlink:href="#GLYPHcmss10_112"
       x="18.861479"
       id="use3990" />
  </g>
  <path
     d="M11.000000 56.000000C11.000000 -5.768219,190.250031 26.431503,200.212646 9.175705"
     style="stroke:rgb(0.000000%,0.000000%,0.000000%); stroke-width: 0.398499;stroke-linecap: round;stroke-linejoin: round;stroke-miterlimit: 10.000000;fill: none;"
     id="path3994" />
  <path
     d="M200.212646 9.175705C210.175171 26.431961,389.422470 -5.767273,389.425293 56.000000"
     style="stroke:rgb(0.000000%,0.000000%,0.000000%); stroke-width: 0.398499;stroke-linecap: round;stroke-linejoin: round;stroke-miterlimit: 10.000000;fill: none;"
     id="path3996" />
  <g
     transform="translate(187.607147 6.175705)"
     style="fill: rgb(0.000000%,0.000000%,0.000000%);"
     id="g4008">
    <use
       xlink:href="#GLYPHcmss10_98"
       id="use3998" />
    <use
       xlink:href="#GLYPHcmss10_117"
       x="5.166766"
       id="use4000" />
    <use
       xlink:href="#GLYPHcmss10_13"
       x="10.333532"
       id="use4002" />
    <use
       xlink:href="#GLYPHcmss10_101"
       x="15.694738"
       id="use4004" />
    <use
       xlink:href="#GLYPHcmss10_110"
       x="20.139267"
       id="use4006" />
  </g>
  <path
     d="M11.000000 56.000000L389.425293 56.000000"
     style="stroke:rgb(0.000000%,0.000000%,0.000000%); stroke-width: 0.797012;stroke-linecap: round;stroke-linejoin: round;stroke-miterlimit: 10.000000;fill: none;"
     id="path4010" />
  <path
     d="M11.000000 56.000000l0 0"
     style="stroke:rgb(0.000000%,0.000000%,0.000000%); stroke-width: 11.955139;stroke-linecap: round;stroke-linejoin: round;stroke-miterlimit: 10.000000;fill: none;"
     id="path4012" />
  <path
     d="M124.385803 56.000000l0 0"
     style="stroke:rgb(0.000000%,0.000000%,0.000000%); stroke-width: 11.955139;stroke-linecap: round;stroke-linejoin: round;stroke-miterlimit: 10.000000;fill: none;"
     id="path4014" />
  <path
     d="M230.684998 56.000000l0 0"
     style="stroke:rgb(0.000000%,0.000000%,0.000000%); stroke-width: 11.955139;stroke-linecap: round;stroke-linejoin: round;stroke-miterlimit: 10.000000;fill: none;"
     id="path4016" />
  <path
     d="M389.425293 56.000000l0 0"
     style="stroke:rgb(0.000000%,0.000000%,0.000000%); stroke-width: 11.955139;stroke-linecap: round;stroke-linejoin: round;stroke-miterlimit: 10.000000;fill: none;"
     id="path4018" />
  <text
     xml:space="preserve"
     style="font-style:normal;font-weight:normal;font-size:40px;line-height:1.25;font-family:sans-serif;letter-spacing:0px;word-spacing:0px;fill:#000000;fill-opacity:1;stroke:none"
     x="115.56084"
     y="70.373848"
     id="text4032"><tspan
       sodipodi:role="line"
       id="tspan4030"
       x="115.56084"
       y="70.373848"
       style="font-style:normal;font-variant:normal;font-weight:normal;font-stretch:normal;font-size:8px;font-family:sans-serif;-inkscape-font-specification:'sans-serif, Normal';font-variant-ligatures:normal;font-variant-caps:normal;font-variant-numeric:normal;font-feature-settings:normal;text-align:start;writing-mode:lr-tb;text-anchor:start">bog</tspan></text>
</svg>
